<svg id="Layer_1" enable-background="new 0 0 479.884 479.884" height="512" viewBox="0 0 479.884 479.884" width="512" xmlns="http://www.w3.org/2000/svg"><path d="m401.174 201.972 5.25 58.03-88.061 23.263 24.771-103.133h34.14c12.42 0 22.78 9.47 23.9 21.84z" fill="#dbeeff"/><path d="m402.954 221.622c-4.45-6.93-12.47-11.49-21.54-11.49h-38.28v-30h34.14c12.42 0 22.78 9.47 23.9 21.84z" fill="#eef7ff"/><path d="m445.054 282.662 3.32 59.28-185.753 23.615 33.933-185.425h46.58v79.87h77.95c12.74 0 23.26 9.95 23.97 22.66z" fill="#80aaff"/><path d="m296.554 180.132h46.58v30h-46.58z" fill="#9cbcff"/><path d="m280.554 52.002h-233.04c-8.83 0-16 7.17-16 16v293.94h265.04v-293.94c0-8.83-7.16-16-16-16z" fill="#ffe773"/><path d="m296.554 68.002v4h-209.04c-8.83 0-16 7.17-16 16v253.94h-40v-273.94c0-8.83 7.17-16 16-16h233.04c8.84 0 16 7.17 16 16z" fill="#fff0a6"/><g fill="#eef7ff"><path d="m164.034 173.742c56.2 0 84.3 77.07 44.09 97.42-20.48 10.38-42.65-3.66-44.09-4.6-1.44.94-23.6 14.98-44.09 4.6-40.21-20.35-12.1-97.42 44.09-97.42z"/><path d="m232.074 128.322c27.96 14.27-5.95 48.73-20.96 41.07-14.96-7.64-7.02-55.35 20.96-41.07z"/><path d="m164.034 101.592c33.67 0 18.01 49.4 0 49.4-18.05 0-33.63-49.4 0-49.4z"/><path d="m96.004 128.322c27.98-14.28 35.92 33.43 20.96 41.07-15.01 7.66-48.92-26.8-20.96-41.07z"/></g><path d="m448.374 341.942c31.43 0 31.43 47.23 0 47.23h-416.86c-31.43 0-31.43-47.23 0-47.23z" fill="#cbe3fa"/><path d="m470.494 356.942h-408.98c-19.62 0-26.99 18.4-22.12 32.23h-7.88c-31.43 0-31.43-47.23 0-47.23h416.86c11.81 0 19.18 6.67 22.12 15z" fill="#eef7ff"/><path d="m363.334 303.232c-34.42 0-62.33 27.9-62.33 62.32s27.91 62.33 62.33 62.33 62.32-27.91 62.32-62.33-27.9-62.32-62.32-62.32z" fill="#585966"/><path d="m330.004 379.552c0 18.88 8.4 35.81 21.67 47.24-28.85-5.46-50.67-30.81-50.67-61.24 0-34.42 27.91-62.32 62.33-62.32 15.55 0 29.76 5.69 40.68 15.1-38.485-7.331-74.01 22.217-74.01 61.22z" fill="#6e6f80"/><circle cx="363.334" cy="365.552" fill="#42434d" r="24"/><path d="m116.554 303.232c-34.42 0-62.32 27.9-62.32 62.32s27.9 62.33 62.32 62.33 62.33-27.91 62.33-62.33-27.91-62.32-62.33-62.32z" fill="#585966"/><path d="m83.234 379.552c0 18.88 8.4 35.81 21.67 47.24-28.85-5.46-50.67-30.81-50.67-61.24 0-34.42 27.91-62.32 62.33-62.32 15.55 0 29.76 5.69 40.68 15.1-38.485-7.331-74.01 22.217-74.01 61.22z" fill="#6e6f80"/><circle cx="116.554" cy="365.552" fill="#42434d" r="24"/><g><path d="m455.978 334.725-2.939-52.508c-.948-16.941-14.983-30.211-31.95-30.211h-7.352l-4.592-50.754c-1.502-16.599-15.203-29.117-31.87-29.117h-72.718v-104.129c0-13.234-10.767-24-24-24h-233.039c-13.233 0-24 10.766-24 24v266.809c-34.103 7.787-30.845 62.352 8 62.352h22.252c11.596 22.937 35.377 38.71 62.786 38.71s51.19-15.773 62.787-38.71h121.201c11.596 22.937 35.377 38.71 62.787 38.71s51.19-15.773 62.786-38.71h22.252c38.858 0 42.234-55.034 7.609-62.442zm-424.46 46.442c-20.87 0-20.87-31.226 0-31.226h16.485c-2.358 10.357-2.358 20.868 0 31.226zm85.039 38.71c-29.954 0-54.322-24.369-54.322-54.323s24.369-54.322 54.322-54.322 54.323 24.369 54.323 54.322-24.369 54.323-54.323 54.323zm68.554-38.71c10.066-44.213-23.744-85.935-68.554-85.935-27.41 0-51.19 15.773-62.786 38.709h-14.253v-265.935c0-4.411 3.589-8 8-8h233.039c4.411 0 8 3.589 8 8v227.904c0 4.418 3.582 8 8 8s8-3.582 8-8v-107.775h72.718c8.333 0 15.184 6.259 15.936 14.559l4.461 49.312h-46.534v-38.936c0-4.418-3.582-8-8-8s-8 3.582-8 8v46.936c0 4.418 3.582 8 8 8h77.951c8.484 0 15.501 6.635 15.976 15.106l2.845 50.83h-13.792c-11.596-22.937-35.377-38.709-62.786-38.709s-51.19 15.773-62.787 38.709h-92.891c-4.418 0-8 3.582-8 8s3.582 8 8 8h87.124c-2.358 10.357-2.358 20.868 0 31.226h-109.667zm178.22 38.71c-29.954 0-54.323-24.369-54.323-54.323s24.369-54.322 54.323-54.322 54.322 24.369 54.322 54.322-24.368 54.323-54.322 54.323zm85.039-38.71h-16.485c2.358-10.357 2.358-20.868 0-31.226h16.485c20.797.001 20.984 31.226 0 31.226z"/><path d="m116.557 333.555c-17.645 0-32 14.355-32 32s14.355 32 32 32 32-14.355 32-32-14.355-32-32-32zm0 48c-8.822 0-16-7.178-16-16s7.178-16 16-16 16 7.178 16 16-7.178 16-16 16z"/><path d="m363.331 333.555c-17.645 0-32 14.355-32 32s14.355 32 32 32 32-14.355 32-32-14.355-32-32-32zm0 48c-8.822 0-16-7.178-16-16s7.178-16 16-16 16 7.178 16 16-7.177 16-16 16z"/><path d="m164.036 165.746c-64.02 0-96.06 88.078-47.705 112.558 19.279 9.76 38.984 2.012 47.704-2.524 14.971 7.79 32.454 10.246 47.706 2.525 48.32-24.464 16.341-112.559-47.705-112.559zm40.478 98.283c-16.584 8.396-35.901-4.037-36.094-4.163-2.663-1.744-6.103-1.744-8.767-.001-.193.126-19.515 12.559-36.096 4.163-31.94-16.169-7.886-82.283 40.479-82.283 48.315.001 72.466 66.09 40.478 82.284z"/><path d="m164.038 158.995c15.658 0 27.803-20.397 27.803-37.944 0-36.728-55.609-37.237-55.609.027 0 17.534 12.146 37.917 27.806 37.917zm11.803-37.944c0 10.883-7.572 21.944-11.803 21.944-4.232 0-11.806-11.047-11.806-21.917 0-15.415 23.609-16.23 23.609-.027z"/><path d="m120.596 176.518c17.426-8.894 14.647-44.127-2.422-55.195-15.411-9.993-39.901 2.514-40.851 20.857-1.059 20.49 25.927 43.193 43.273 34.338zm-11.127-41.77c8.311 5.39 8.502 25.148 3.854 27.52-4.662 2.376-20.535-9.318-20.021-19.261.297-5.763 10.895-11.677 16.167-8.259z"/><path d="m207.479 176.518c17.337 8.852 44.335-13.804 43.273-34.338-.948-18.344-25.438-30.85-40.851-20.857-17.085 11.079-19.833 46.309-2.422 55.195zm11.128-41.77c5.224-3.383 15.863 2.409 16.167 8.259.512 9.903-15.35 21.646-20.021 19.261-4.621-2.358-4.504-22.101 3.854-27.52z"/></g></svg>