<?xml version="1.0" encoding="iso-8859-1"?>
<!-- Generator: Adobe Illustrator 19.0.0, SVG Export Plug-In . SVG Version: 6.00 Build 0)  -->
<svg version="1.1" id="Capa_1" xmlns="http://www.w3.org/2000/svg" xmlns:xlink="http://www.w3.org/1999/xlink" x="0px" y="0px"
	 viewBox="0 0 511.997 511.997" style="enable-background:new 0 0 511.997 511.997;" xml:space="preserve">
<g>
	<path style="fill:#EAB883;" d="M135.663,197.947c0,13.218,13.795,23.931,29.577,23.931v-47.859
		C149.458,174.018,135.663,184.731,135.663,197.947z"/>
	<path style="fill:#EAB883;" d="M376.454,197.947c0,13.218-13.795,23.931-29.578,23.931v-47.859
		C362.659,174.018,376.454,184.731,376.454,197.947z"/>
</g>
<g>
	<path style="fill:#DDA36F;" d="M138.461,187.943c-9.445,16.131,6.155,33.934,26.779,33.934v-20.009
		C153.725,201.869,143.274,196.162,138.461,187.943z"/>
	<path style="fill:#DDA36F;" d="M346.876,201.869v20.009c20.738,0,36.181-17.88,26.78-33.934
		C368.844,196.162,358.392,201.869,346.876,201.869z"/>
</g>
<path style="fill:#F2F1F0;" d="M382.728,84.256c-0.756-26.577-22.43-48.284-49.005-49.091c-7.835-0.238-15.276,1.321-21.965,4.272
	c-11.175-19.153-31.927-32.031-55.7-32.031s-44.525,12.879-55.699,32.03c-6.691-2.952-14.134-4.511-21.972-4.272
	c-26.576,0.812-48.246,22.522-48.998,49.1c-0.49,17.303,7.715,32.712,20.562,42.193v37.961c0,5.285,4.284,9.569,9.569,9.569h191.106
	c6.373,0,11.538-5.166,11.538-11.538v-35.991C375.014,116.975,383.22,101.562,382.728,84.256z"/>
<path style="fill:#DADADA;" d="M174.674,164.418v-33.239c0-6.727-2.576-13.181-7.144-18.12c-8.647-9.35-13.81-21.969-13.419-35.798
	c0.505-17.852,10.456-33.497,24.983-42.099c-0.005-0.016,0,0.001-0.004-0.015c-26.896,0.446-48.943,22.305-49.701,49.117
	c-0.49,17.303,7.715,32.712,20.562,42.193v37.961c0,5.285,4.285,9.57,9.569,9.57h24.722
	C178.958,173.988,174.674,169.703,174.674,164.418z"/>
<path style="fill:#EAEAEA;" d="M406.998,504.495c12.342,0,21.601-11.285,19.191-23.389l-15.783-79.272
	c-4.124-20.659-19.303-29.059-27.664-32.178l-88.238-35.16l-38.594,29.678l-38.625-29.499l-88.475,34.981
	c-8.363,3.119-23.541,11.519-27.665,32.178l-15.296,76.817c-2.663,13.374,7.568,25.844,21.205,25.844h299.946V504.495z"/>
<path style="fill:#DADADA;" d="M110.86,478.651l15.296-89.823c2.135-10.694,7.233-18.097,12.814-23.189l-10.161,4.017
	c-8.363,3.119-23.541,11.519-27.665,32.178l-15.296,76.817c-2.663,13.374,7.568,25.844,21.205,25.844h25.011
	C118.428,504.494,108.197,492.024,110.86,478.651z"/>
<path style="fill:#F2F1F0;" d="M426.188,481.106l-15.783-79.273c-4.124-20.659-19.303-29.059-27.664-32.178l-88.238-35.16
	l-38.519,29.621l0.075,0.057c-0.18,0.988,1.233,9.147-5.777,15.885v0.706l-27.732,21.716c-4.635,3.63-7.343,9.189-7.343,15.077
	v86.937h191.792C419.339,504.495,428.598,493.21,426.188,481.106z"/>
<path style="fill:#FF6536;" d="M255.909,364.174v2.134c0,16.442,19.346,25.252,31.748,14.457l38.617-33.61l-31.771-12.66
	L255.909,364.174z"/>
<g>
	<path style="fill:#ED4A24;" d="M277.76,348.688v-1.317l-21.851,16.804v2.134c0,16.442,19.346,25.251,31.748,14.456l8.093-7.043
		C285.732,370.312,277.76,361.079,277.76,348.688z"/>
	<path style="fill:#ED4A24;" d="M256.058,364.174v2.134c0,16.442-19.346,25.252-31.748,14.457l-38.617-33.61l31.591-12.481
		L256.058,364.174z"/>
</g>
<path style="fill:#EAB883;" d="M294.503,310.386c-0.09,0.042-0.179,0.08-0.269,0.121l0,0v-0.01c-0.006,0.003-0.014,0.007-0.021,0.01
	l0,0v-0.121c-11.69,5.42-24.699,8.474-38.426,8.495h-0.012h-0.007c-13.731-0.021-26.741-3.073-38.43-8.495v0.121h-0.001
	c-0.007-0.003-0.015-0.007-0.021-0.01v0.01l0,0c-0.089-0.041-0.179-0.079-0.268-0.121l0.238,24.288l0,0l38.624,29.499l38.594-29.679
	v-24.108H294.503z"/>
<path style="fill:#DDA36F;" d="M242.058,317.83c-8.7-1.323-17-3.863-24.721-7.442v0.121h-0.001c-0.007-0.003-0.015-0.007-0.021-0.01
	v0.01l0,0c-0.089-0.041-0.179-0.079-0.268-0.121l0.238,24.288l24.773,18.921L242.058,317.83L242.058,317.83z"/>
<path style="fill:#F7CF9C;" d="M164.24,173.988v54.775c0,52.617,43.611,95.475,96.17,93.023
	c48.688-2.271,87.465-42.46,87.465-91.716v-56.08L164.24,173.988L164.24,173.988z"/>
<path style="fill:#EAB883;" d="M188.963,228.762v-54.774H164.24v54.774c0,52.617,43.611,95.475,96.17,93.023
	c2.733-0.127,5.433-0.381,8.1-0.742C223.688,314.891,188.963,275.714,188.963,228.762z"/>
<circle cx="247.119" cy="430.7" r="8.657"/>
<circle cx="247.119" cy="467.597" r="8.657"/>
<path d="M319.723,158.183c4.145,0,7.503-3.359,7.503-7.503v-24.222c0-4.145-3.359-7.503-7.503-7.503s-7.503,3.359-7.503,7.503
	v24.222C312.219,154.825,315.578,158.183,319.723,158.183z"/>
<path d="M277.279,158.183c4.145,0,7.503-3.359,7.503-7.503v-24.222c0-4.145-3.359-7.503-7.503-7.503s-7.503,3.359-7.503,7.503
	v24.222C269.776,154.825,273.135,158.183,277.279,158.183z"/>
<path d="M234.836,158.183c4.144,0,7.503-3.359,7.503-7.503v-24.222c0-4.145-3.36-7.503-7.503-7.503
	c-4.145,0-7.503,3.359-7.503,7.503v24.222C227.333,154.825,230.692,158.183,234.836,158.183z"/>
<path d="M192.393,158.183c4.145,0,7.503-3.359,7.503-7.503v-24.222c0-4.145-3.359-7.503-7.503-7.503s-7.503,3.359-7.503,7.503
	v24.222C184.89,154.825,188.249,158.183,192.393,158.183z"/>
<path d="M433.548,479.64l-15.785-79.275c-4.674-23.421-21.531-33.397-31.162-37.259c-3.844-1.544-8.215,0.324-9.756,4.172
	c-1.543,3.846,0.325,8.215,4.172,9.756c8.325,3.339,18.905,10.607,22.031,26.265l15.784,79.271
	c1.489,7.486-4.245,14.42-11.832,14.42h-35.545v-37.208c0-4.145-3.359-7.503-7.503-7.503c-4.144,0-7.503,3.359-7.503,7.503v37.208
	H222.709v-31.27c0-4.145-3.359-7.503-7.503-7.503s-7.503,3.358-7.503,7.503v31.27h-52.6v-37.208c0-4.145-3.359-7.503-7.503-7.503
	s-7.503,3.359-7.503,7.503v37.208h-33.042c-8.902,0-15.585-8.139-13.846-16.875l15.294-76.813
	c2.428-12.159,9.884-21.501,23.078-26.675l52.558-20.879c35.695,30.632,35.544,31.956,41.52,34.769l-7.732,6.056
	c-14.076,11.019-9.282,26.808-10.222,34.132c0,4.145,3.359,7.503,7.503,7.503s7.503-3.358,7.503-7.503v-13.148
	c0-3.606,1.628-6.947,4.466-9.169c28.621-22.525,27.994-21.642,29.102-23.115c9.71,9.535,25.364,10.675,36.306,1.152l35.165-30.606
	l20.212,8.055c3.849,1.534,8.214-0.342,9.747-4.192c1.535-3.85-0.343-8.214-4.192-9.747l-24.463-9.748h-0.001l-27.045-10.777
	v-11.206c31.846-16.583,53.374-49.878,53.374-88.135v-1.375c16.305-3.017,28.578-15.654,28.578-30.746
	c0-11.08-6.62-20.831-16.589-26.431c3.885-7.143,1.661-11.675,2.301-41.432c13.437-11.378,21.063-28.312,20.559-46.042
	c-1.095-38.462-38.841-65.288-75.449-53.752c-28.657-40.355-88.735-40.425-117.441,0c-36.553-11.514-74.359,15.242-75.45,53.762
	c-0.501,17.727,7.125,34.658,20.56,46.033c0.529,33.158-1.246,35.644,1.722,41.756c-26.6,15.571-18.368,51.127,12.567,56.853v0.069
	c0,36.331,19.816,70.965,52.806,88.846v11.901l-83.433,33.146c-10.048,3.765-27.521,13.655-32.326,37.714l-15.295,76.817
	c-3.593,18.031,10.211,34.809,28.562,34.809c11.04,0,243.53,0,256.895,0h43.048C424.087,511.997,436.877,496.37,433.548,479.64z
	 M199.898,349.571l16.277-6.486l32.272,24.818c-1.118,8.732-11.9,13.567-19.213,7.202L199.898,349.571z M282.731,375.104
	c-7.275,6.333-18.134,1.6-19.224-7.263c0.001-0.016,0.001-0.031,0.002-0.047l32.183-24.749l16.375,6.526L282.731,375.104z
	 M355.38,213.299v-30.702c7.927,2.361,13.571,8.352,13.571,15.35S363.306,210.937,355.38,213.299z M136.889,84.476
	c0.779-27.542,26.979-47.236,53.58-40.528c-1.851,4.551-3.261,9.347-4.15,14.354c-0.724,4.08,1.997,7.976,6.077,8.699
	c4.076,0.714,7.975-1.997,8.699-6.077c4.796-27.024,28.259-46.016,54.963-46.016c26.977,0,50.209,19.235,54.963,46.016
	c0.646,3.638,3.81,6.193,7.379,6.193c4.689,0,8.21-4.232,7.396-8.815c-0.889-5.009-2.301-9.808-4.153-14.361
	c26.732-6.737,52.804,13.107,53.583,40.527v0.001c0.402,14.118-6.147,27.558-17.518,35.952c-1.916,1.415-3.047,3.655-3.047,6.037
	v35.991c0,2.226-1.811,4.036-4.035,4.036c-3.305,0-177.124,0-191.107,0c-1.14,0-2.065-0.927-2.065-2.067v-37.96
	c0-2.382-1.132-4.623-3.048-6.037C143.038,112.03,136.489,98.593,136.889,84.476z M156.737,182.597v30.702
	C138.678,207.916,138.684,187.975,156.737,182.597z M171.744,228.762c0-10.544,0-37.488,0-47.27h168.63c0,9.912,0,37.472,0,48.577
	c0,46.121-36.968,84.309-84.773,84.309C208.814,314.105,171.744,275.036,171.744,228.762z M287,324.504v6.296l-31.016,23.852
	l-31.433-24.173v-6.158C244.281,330.911,266.491,331.184,287,324.504z"/>
<g>
</g>
<g>
</g>
<g>
</g>
<g>
</g>
<g>
</g>
<g>
</g>
<g>
</g>
<g>
</g>
<g>
</g>
<g>
</g>
<g>
</g>
<g>
</g>
<g>
</g>
<g>
</g>
<g>
</g>
</svg>
