<svg height="512" viewBox="0 0 60 60" width="512" xmlns="http://www.w3.org/2000/svg"><g id="Page-1" fill="none" fill-rule="evenodd"><g id="001---House-Cleaning" fill-rule="nonzero" transform="translate(0 -1)"><g id="Icons" transform="translate(1 2)"><path id="Shape" d="m39.04 35.36v21.64c0 .5522847-.4477153 1-1 1h-34c-.55228475 0-1-.4477153-1-1v-34h19.55c.6051435 3.0656613 2.1089764 5.8818668 4.32 8.09 3.92 3.93 9.34 5.13 12.13 4.27z" fill="#f5f5f5"/><path id="Shape" d="m35.487 35.5c-6.4832933-1.0729882-11.6218949-6.0534116-12.897-12.5h-3c.6051435 3.0656613 2.1089764 5.8818668 4.32 8.09 3.675 3.684 8.668 4.969 11.577 4.41z" fill="#cfd8dc"/><path id="Shape" d="m36.04 35.565v21.435c0 .5522847-.4477153 1-1 1h3c.5522847 0 1-.4477153 1-1v-21.64c-.9772382.2622672-1.9961691.3318941-3 .205z" fill="#cfd8dc"/><path id="Shape" d="m31.54 13.78c-.1396717.1017365-.2701698.2155041-.39.34l-.71.71c-.2698616.2694797-.3629516.668991-.24 1.03l-4.26 1.13-2.57.67c-.93.93-1.23 2.96-.78 5.34h-21.51c-.43043041 0-.81256925-.2754301-.9486833-.6837722-.13611404-.4083422.00433897-.8579696.3486833-1.1162278l19.96-14.76c.353503-.26169907.836497-.26169907 1.19 0z" fill="#f44335"/><path id="Shape" d="m21.63 6.44c-.353503-.26169907-.836497-.26169907-1.19 0l-.906.67 9.006 6.67c-.1396717.1017365-.2701698.2155041-.39.34l-.71.71c-.2698616.2694797-.3629516.668991-.24 1.03l-4.26 1.13-2.57.67c-.93.93-1.23 2.96-.78 5.34h3c-.45-2.38-.15-4.41.78-5.34l2.57-.67 4.26-1.13c-.1229516-.361009-.0298616-.7605203.24-1.03l.71-.71c.1198302-.1244959.2503283-.2382635.39-.34z" fill="#c81e1e"/><path id="Rectangle-path" d="m8.035 43h10v10h-10z" fill="#02a9f4"/><path id="Rectangle-path" d="m8.035 28h10v10h-10z" fill="#02a9f4"/><path id="Shape" d="m29.035 43c2.7614237 0 5 2.2385763 5 5v10h-10v-10c0-1.3260824.5267842-2.597852 1.4644661-3.5355339s2.2094515-1.4644661 3.5355339-1.4644661z" fill="#a0522d"/><path id="Shape" d="m29.035 43c-.5100695.0072164-1.0159906.0928857-1.5.254 2.0778103.6480614 3.4947835 2.5694771 3.5 4.746v10h3v-10c0-2.7614237-2.2385763-5-5-5z" fill="#783e22"/><path id="Shape" d="m42.14 27.79v.01l-1.13 4.26-.67 2.57c-.3684644.3441424-.8143585.5945291-1.3.73-2.79.86-8.21-.34-12.13-4.27-2.2110236-2.2081332-3.7148565-5.0243387-4.32-8.09-.45-2.38-.15-4.41.78-5.34l2.57-.67 4.26-1.13h.01c.0365317.1498359.116553.2855244.23.39l11.31 11.31c.1044756.113447.2401641.1934683.39.23z" fill="#ffe0b2"/><path id="Shape" d="m43.88 26.85-.71.71c-.2694797.2698616-.668991.3629516-1.03.24v-.01c-.1498359-.0365317-.2855244-.116553-.39-.23l-11.31-11.31c-.113447-.1044756-.1934683-.2401641-.23-.39h-.01c-.1229516-.361009-.0298616-.7605203.24-1.03l.71-.71c.1198302-.1244959.2503283-.2382635.39-.34 2.376404-2.0029175 5.8900332-1.8552495 8.09.34l4.25 4.25c2.339627 2.3425404 2.339627 6.1374596 0 8.48z" fill="#a0522d"/><path id="Shape" d="m43.88 18.37-4.25-4.25c-1.4980143-1.4881999-3.6710152-2.0738529-5.714-1.54 1.0258.2621513 1.9628341.7938508 2.714 1.54l4.25 4.25c2.3054784 2.3109021 2.3374887 6.0418809.072 8.392l.8.8c.1044756.113447.2401641.1934683.39.23v.01c.361009.1229516.7605203.0298616 1.03-.24l.71-.71c2.3404067-2.3433219 2.3395115-6.1397821-.002-8.482z" fill="#783e22"/><path id="Shape" d="m58 4.77c.0013569 1.34406885-.5652273 2.62614708-1.56 3.53l-11.86 10.77-5.65-5.65 10.77-11.86c.877698-.96440312 2.1120858-1.52724795 3.4157396-1.55747761 1.3036539-.03022965 2.5628039.47479402 3.4842604 1.39747761.9000801.88988713 1.4045798 2.10428977 1.4 3.37z" fill="#a0522d"/><path id="Shape" d="m56.6 1.4c-1.2717445-1.27132245-3.1543786-1.71155965-4.858-1.136 1.9474069.6377038 3.2627111 2.45684468 3.258 4.506.0013569 1.34406885-.5652273 2.62614708-1.56 3.53l-10.288 9.342 1.428 1.428 11.86-10.77c.9947727-.90385292 1.5613569-2.18593115 1.56-3.53.0045798-1.26571023-.4999199-2.48011287-1.4-3.37z" fill="#783e22"/><g fill="#02a9f4"><circle id="Oval" cx="47.5" cy="37.5" r="2.5"/><circle id="Oval" cx="30.5" cy="3.5" r="2.5"/></g></g><g id="Layer_2" fill="#000"><path id="Shape" d="m2.08 26h.96v33c0 1.1045695.8954305 2 2 2h34c1.1045695 0 2-.8954305 2-2v-17.55c0-.5522847-.4477153-1-1-1s-1 .4477153-1 1v17.55h-3.005v-9c0-3.3137085-2.6862915-6-6-6s-6 2.6862915-6 6v9h-18.995v-33h14.49c.5522847 0 1-.4477153 1-1s-.4477153-1-1-1h-15.471c-.007 0-.012 0-.019 0s-.012 0-.019 0h-1.946l19.96-14.76 6.63 4.91c.4440369.3286094 1.0703906.2350369 1.399-.209s.2350369-1.0703906-.209-1.399l-6.629-4.905c-.7084883-.52001243-1.6725117-.52001243-2.381 0l-19.96 14.763c-.68795801.5159629-.96908213 1.4139345-.69816432 2.2300886.27091782.8161541 1.03322283 1.3677651 1.89316432 1.3699114zm23.955 24c0-1.4290624.7623956-2.7495705 2-3.4641017 1.2376043-.7145312 2.7623957-.7145312 4 0 1.2376044.7145312 2 2.0350393 2 3.4641017v9h-8z"/><path id="Shape" d="m19.035 44h-10c-.55228475 0-1 .4477153-1 1v10c0 .5522847.44771525 1 1 1h10c.5522847 0 1-.4477153 1-1v-10c0-.5522847-.4477153-1-1-1zm-1 5h-3v-3h3zm-5-3v3h-3v-3zm-3 5h3v3h-3zm5 3v-3h3v3z"/><path id="Shape" d="m20.035 30c0-.5522847-.4477153-1-1-1h-10c-.55228475 0-1 .4477153-1 1v10c0 .5522847.44771525 1 1 1h10c.5522847 0 1-.4477153 1-1zm-2 4h-3v-3h3zm-5-3v3h-3v-3zm-3 5h3v3h-3zm5 3v-3h3v3z"/><path id="Shape" d="m31.035 51c-.5522847 0-1 .4477153-1 1v2c0 .5522847.4477153.9999999 1 .9999999s1-.4477152 1-.9999999v-2c0-.5522847-.4477153-1-1-1z"/><path id="Shape" d="m31.441 15.417-.708.708c-.2630206.264441-.4457423.5979862-.527.962l-6.089 1.605c-.1719423.0448554-.3287165.1349833-.454.261-1.243 1.242-1.614 3.712-.994 6.608.091.422.2.842.331 1.259v.025c0 .008.019.035.025.054 1.6480885 5.292711 5.7948042 9.4356873 11.089 11.079.015 0 .025.016.041.021s.022 0 .034 0c.414.126.831.238 1.25.328.8593773.1888632 1.7361392.2873983 2.616.294 1.4473831.1049127 2.8788659-.3569485 3.992-1.288.1260167-.1252835.2161446-.2820577.261-.454l1.6-6.089c.3640044-.0820545.6976629-.2646485.963-.527l.707-.708c2.1778017-2.1790299 2.6776997-5.5245325 1.232-8.245l11.3-10.275c1.7812417-1.61888812 2.3699342-4.17367399 1.4767671-6.40881899s-3.0803899-3.68067124-5.4867671-3.62618101c-1.5781077.03200354-3.0727915.71492563-4.13 1.887l-10.28 11.303c-2.7203998-1.4489776-6.0680995-.951023-8.249 1.227zm4.417 20.958c-.063-.014-.143-.035-.211-.051l1-3.674c.1449747-.5329548-.1695452-1.0825253-.7025-1.2275s-1.0825253.1695452-1.2275.7025l-.982 3.6c-1.6046443-.6290811-3.0879753-1.5318017-4.384-2.668l3.355-3.355c.3789722-.3923789.3735524-1.0160848-.0121814-1.4018186s-1.0094397-.3911536-1.4018186-.0121814l-3.355 3.355c-1.1361983-1.2960247-2.0389189-2.7793557-2.668-4.384l3.605-.982c.5329548-.1449747.8474747-.6945452.7025-1.2275s-.6945452-.8474747-1.2275-.7025l-3.674 1c-.016-.068-.037-.148-.051-.211-.481-2.247-.21-3.87.3-4.594l5.86-1.542 11.216 11.216-1.545 5.858c-.727.511-2.355.781-4.597.301zm8.31-8.23-.706.708-11.315-11.314.708-.707c1.9526137-1.9525763 5.1183863-1.9525763 7.071 0l4.242 4.242c1.9525763 1.9526137 1.9525763 5.1183863 0 7.071zm7.276-23.912c.9347845-1.02600052 2.3579362-1.4550157 3.704031-1.11659605s2.3971454 1.38947022 2.735565 2.73556506c.3384197 1.34609483-.0905955 2.76924647-1.116596 3.70403099l-11.151 10.137-4.309-4.309z"/><path id="Shape" d="m45 39.5c0 1.9329966 1.5670034 3.5 3.5 3.5s3.5-1.5670034 3.5-3.5-1.5670034-3.5-3.5-3.5-3.5 1.5670034-3.5 3.5zm5 0c0 .8284271-.6715729 1.5-1.5 1.5s-1.5-.6715729-1.5-1.5.6715729-1.5 1.5-1.5 1.5.6715729 1.5 1.5z"/><path id="Shape" d="m31.5 9c1.9329966 0 3.5-1.56700338 3.5-3.5s-1.5670034-3.5-3.5-3.5-3.5 1.56700338-3.5 3.5 1.5670034 3.5 3.5 3.5zm0-5c.8284271 0 1.5.67157288 1.5 1.5s-.6715729 1.5-1.5 1.5-1.5-.67157288-1.5-1.5.6715729-1.5 1.5-1.5z"/><path id="Shape" d="m54 29c.5522847 0 1-.4477153 1-1v-2c0-.5522847-.4477153-1-1-1s-1 .4477153-1 1v2c0 .5522847.4477153 1 1 1z"/><path id="Shape" d="m53 34c0 .5522847.4477153 1 1 1s1-.4477153 1-1v-2c0-.5522847-.4477153-1-1-1s-1 .4477153-1 1z"/><path id="Shape" d="m59 30c0-.5522847-.4477153-1-1-1h-2c-.5522847 0-1 .4477153-1 1s.4477153 1 1 1h2c.5522847 0 1-.4477153 1-1z"/><path id="Shape" d="m52 29h-2c-.5522847 0-1 .4477153-1 1s.4477153 1 1 1h2c.5522847 0 1-.4477153 1-1s-.4477153-1-1-1z"/><path id="Shape" d="m13.293 9.707c.3923789.3789722 1.0160848.3735524 1.4018186-.01218142.3857338-.3857338.3911536-1.00943969.0121814-1.40181858l-1.5-1.5c-.3923789-.37897221-1.0160848-.37355237-1.4018186.01218142-.3857338.3857338-.3911536 1.00943969-.0121814 1.40181858z"/><path id="Shape" d="m8.793 5.207c.39237889.37897221 1.01608478.37355237 1.4018186-.01218142.3857338-.3857338.3911536-1.00943969.0121814-1.40181858l-1.5-1.5c-.39237889-.37897221-1.01608478-.37355237-1.40181858.01218142-.38573379.3857338-.39115363 1.00943969-.01218142 1.40181858z"/><path id="Shape" d="m8 10c.26519481-.00005664.51950727-.10545063.707-.293l1.5-1.5c.2599566-.25107447.3642126-.62287789.2726972-.97250732-.0915155-.34962944-.3645604-.6226744-.71418988-.71418984-.34962943-.09151544-.72143285.01274058-.97250732.27269716l-1.5 1.5c-.28590792.28599425-.37142191.71603662-.21667798 1.08965456s.51928208.61725909.92367798.61734544z"/><path id="Shape" d="m12.5 5.5c.2651948-.00005664.5195073-.10545063.707-.293l1.5-1.5c.3789722-.39237889.3735524-1.01608478-.0121814-1.40181858-.3857338-.38573379-1.0094397-.39115363-1.4018186-.01218142l-1.5 1.5c-.2859079.28599425-.3714219.71603662-.216678 1.08965456s.5192821.61725909.923678.61734544z"/></g></g></g></svg>