<?xml version="1.0" encoding="UTF-8" standalone="no"?>
<!-- Created with Inkscape (http://www.inkscape.org/) -->

<svg
   version="1.1"
   id="svg1662"
   xml:space="preserve"
   width="682.66669"
   height="682.66669"
   viewBox="0 0 682.66669 682.66669"
   xmlns="http://www.w3.org/2000/svg"
   xmlns:svg="http://www.w3.org/2000/svg"><defs
     id="defs1666"><clipPath
       clipPathUnits="userSpaceOnUse"
       id="clipPath1676"><path
         d="M 0,512 H 512 V 0 H 0 Z"
         id="path1674" /></clipPath></defs><g
     id="g1668"
     transform="matrix(1.3333333,0,0,-1.3333333,0,682.66667)"><g
       id="g1670"><g
         id="g1672"
         clip-path="url(#clipPath1676)"><g
           id="g1678"
           transform="translate(50.9268,162.2061)"><path
             d="m 0,0 h -24.491 c -6.01,0 -10.913,-4.904 -10.913,-10.885 v -27.271 c 0,-5.981 4.903,-10.885 10.913,-10.885 H 0"
             style="fill:none;stroke:#000000;stroke-width:15;stroke-linecap:round;stroke-linejoin:round;stroke-miterlimit:10;stroke-dasharray:none;stroke-opacity:1"
             id="path1680" /></g><g
           id="g1682"
           transform="translate(124.373,358.4258)"><path
             d="M 0,0 H -17.207 C -25.2,0 -31.72,-6.463 -31.72,-14.457 v -8.051 c 0,-15.534 15.449,-23.953 31.351,-24.095 H 2.976 C 12.813,-31.862 10.658,-15.251 0,0"
             style="fill:#ffbc85;fill-opacity:1;fill-rule:evenodd;stroke:none"
             id="path1684" /></g><g
           id="g1686"
           transform="translate(171.9668,416.2261)"><path
             d="m 0,0 c -3.742,-28.574 -37.333,-30.218 -47.594,-38.127 v -47.51 c 0,-6.038 1.021,-12.388 2.976,-18.766 6.264,-20.722 21.94,-42.068 41.925,-56.581 7.455,-5.415 15.506,-9.865 23.896,-12.983 8.334,-3.09 15.676,-4.621 23.018,-4.621 7.341,0 14.654,1.531 22.988,4.621 8.391,3.118 16.441,7.568 23.896,12.983 19.985,14.513 35.661,35.859 41.925,56.581 1.955,6.378 3.004,12.728 3.004,18.766 v 47.51 C 110.296,15.988 38.636,-29.113 0,0"
             style="fill:#ffe5c1;fill-opacity:1;fill-rule:evenodd;stroke:none"
             id="path1688" /></g><g
           id="g1690"
           transform="translate(169.2734,231.6851)"><path
             d="M 0,0 -64.63,-19.928 C -82.8,-25.513 -93.855,-38.75 -99.638,-54.512 l 38.353,-98.393 c 160.724,-41.416 264.104,-49.608 210.048,135.386 -0.057,0.17 0.085,0.369 0.113,0.539 L 93.799,0 Z"
             style="fill:#3bc3a4;fill-opacity:1;fill-rule:evenodd;stroke:none"
             id="path1692" /></g><g
           id="g1694"
           transform="translate(193.1699,242.2588)"><path
             d="m 0,0 c -8.391,3.118 -16.441,7.568 -23.896,12.983 v -23.557 -6.293 c 0,-42.124 93.798,-42.124 93.798,0 v 6.293 23.557 C 62.447,7.568 54.396,3.118 46.006,0 37.672,-3.09 30.358,-4.621 23.018,-4.621 15.676,-4.621 8.334,-3.09 0,0"
             style="fill:#fed1a3;fill-opacity:1;fill-rule:evenodd;stroke:none"
             id="path1696" /></g><g
           id="g1698"
           transform="translate(304.9971,311.8228)"><path
             d="m 0,0 h 3.345 c 15.902,0.142 31.35,8.561 31.35,24.095 v 8.051 c 0,7.994 -6.519,14.457 -14.512,14.457 H 3.004 C -13.352,34.527 -19.106,19.191 0,0"
             style="fill:#ffbc85;fill-opacity:1;fill-rule:evenodd;stroke:none"
             id="path1700" /></g><g
           id="g1702"
           transform="translate(126.9521,97.7158)"><path
             d="m 0,0 v 71.435 c 0,4.422 -3.6,8.023 -8.022,8.023 h -49.294 -10.687 c -4.422,0 -8.022,-3.601 -8.022,-8.023 V 64.49 15.449 0 c 0,-10.403 8.532,-18.936 18.963,-18.936 h 38.098 C -8.532,-18.936 0,-10.403 0,0"
             style="fill:#dddaec;fill-opacity:1;fill-rule:evenodd;stroke:none"
             id="path1704" /></g><g
           id="g1706"
           transform="translate(263.0723,225.3921)"><path
             d="m 0,0 c 0,-9.808 -5.103,-17.349 -12.926,-22.593 6.35,-20.212 9.864,-42.492 9.864,-65.907 0,-8.051 -0.424,-15.988 -1.218,-23.727 h 38.522 l 20.722,101.001 c 0.028,0.17 0.085,0.369 0.113,0.539 L 0,6.293 Z"
             style="fill:#00a887;fill-opacity:1;fill-rule:evenodd;stroke:none"
             id="path1708" /></g><g
           id="g1710"
           transform="translate(102.291,169.1509)"><path
             d="M 0,0 V -71.435 C 0,-81.838 -8.532,-90.371 -18.964,-90.371 H 5.697 c 10.432,0 18.964,8.533 18.964,18.936 V 0 c 0,4.422 -3.599,8.022 -8.022,8.022 H -8.022 C -3.601,8.022 0,4.422 0,0"
             style="fill:#beb9dd;fill-opacity:1;fill-rule:evenodd;stroke:none"
             id="path1712" /></g><g
           id="g1714"
           transform="translate(308.001,358.4258)"><path
             d="m 0,0 c -7.398,15.563 -18.566,22.905 -31.691,26.193 v -40.934 c 0,-6.066 -2.551,-12.387 -4.479,-18.794 -6.293,-20.694 -21.969,-42.067 -41.953,-56.581 -7.455,-5.386 -15.505,-9.837 -23.896,-12.955 -8.305,-3.09 -15.647,-4.62 -22.989,-4.62 -2.636,0 -5.244,0.198 -7.936,0.595 5.782,-3.657 11.848,-6.747 18.113,-9.071 8.334,-3.09 15.676,-4.621 23.018,-4.621 7.34,0 14.654,1.531 22.988,4.621 8.39,3.118 16.441,7.568 23.896,12.983 19.985,14.514 35.66,35.859 41.925,56.581 C -1.049,-40.225 0,-33.875 0,-27.837 Z"
             style="fill:#fed1a3;fill-opacity:1;fill-rule:evenodd;stroke:none"
             id="path1716" /></g><g
           id="g1718"
           transform="translate(124.373,358.4258)"><path
             d="m 0,0 c 10.261,7.909 43.852,9.553 47.594,38.099 5.754,13.946 5.272,51.11 -8.675,66.588 C 5.073,98.733 -9.468,72.569 -4.961,38.042 Z"
             style="fill:#2b4d66;fill-opacity:1;fill-rule:evenodd;stroke:none"
             id="path1720" /></g><g
           id="g1722"
           transform="translate(171.9668,396.5244)"><path
             d="M 0,0 C 38.636,-29.113 110.296,16.016 136.034,-38.099 141.08,0.681 142.214,38.354 107.632,67.75 75.685,94.907 6.633,95.899 -8.675,66.588 -15.506,50.572 -15.194,13.408 0,0"
             style="fill:#375e7d;fill-opacity:1;fill-rule:evenodd;stroke:none"
             id="path1724" /></g><g
           id="g1726"
           transform="translate(246.4326,477.3428)"><path
             d="m 0,0 c 30.643,-26.051 33.223,-58.651 29.877,-92.724 13.125,-3.288 24.293,-10.63 31.691,-26.193 5.046,38.779 6.18,76.453 -28.402,105.849 C 22.763,-4.224 8.419,1.842 -6.718,4.989 -4.337,3.43 -2.098,1.786 0,0"
             style="fill:#2b4d66;fill-opacity:1;fill-rule:evenodd;stroke:none"
             id="path1728" /></g><g
           id="g1730"
           transform="translate(169.2734,235.2002)"><path
             d="m 0,0 c 7.455,-5.415 15.506,-9.865 23.896,-12.983 8.334,-3.09 15.676,-4.621 23.018,-4.621 7.341,0 14.654,1.531 22.988,4.621 13.748,5.103 10.971,8.107 10.971,-9.638 v -9.78 c 7.823,5.244 12.926,12.785 12.926,22.593 v 6.293 23.557 C 86.344,14.627 78.293,10.177 69.902,7.059 61.568,3.969 54.255,2.438 46.914,2.438 39.572,2.438 32.23,3.969 23.896,7.059 17.632,9.383 11.565,12.473 5.783,16.129 3.827,17.349 1.899,18.681 0,20.042 Z"
             style="fill:#ffbc85;fill-opacity:1;fill-rule:evenodd;stroke:none"
             id="path1732" /></g><g
           id="g1734"
           transform="translate(499.9355,78.7798)"><path
             d="m 0,0 h -487.872 c -2.523,0 -4.564,-2.069 -4.564,-4.592 v -42.493 c 0,-2.522 2.041,-4.563 4.564,-4.563 H 0 c 2.494,0 4.563,2.041 4.563,4.563 V -4.592 C 4.563,-2.069 2.494,0 0,0"
             style="fill:#935d38;fill-opacity:1;fill-rule:evenodd;stroke:none"
             id="path1736" /></g><g
           id="g1738"
           transform="translate(308.001,358.4258)"><path
             d="M 0,0 C -25.738,54.115 -97.398,8.986 -136.034,38.099 -139.776,9.553 -173.367,7.909 -183.628,0 l -4.961,38.042 c -4.507,34.527 10.034,60.691 43.88,66.645 15.308,29.311 84.359,28.318 116.307,1.162 C 6.18,76.453 5.046,38.779 0,0 Z"
             style="fill:none;stroke:#000000;stroke-width:15;stroke-linecap:round;stroke-linejoin:round;stroke-miterlimit:10;stroke-dasharray:none;stroke-opacity:1"
             id="path1740" /></g><g
           id="g1742"
           transform="translate(124.373,358.4258)"><path
             d="M 0,0 H -17.207 C -25.2,0 -31.72,-6.463 -31.72,-14.457 v -8.051 c 0,-15.534 15.449,-23.953 31.351,-24.095 h 3.345"
             style="fill:none;stroke:#000000;stroke-width:15;stroke-linecap:round;stroke-linejoin:round;stroke-miterlimit:10;stroke-dasharray:none;stroke-opacity:1"
             id="path1744" /></g><g
           id="g1746"
           transform="translate(308.001,358.4258)"><path
             d="m 0,0 h 17.179 c 7.993,0 14.512,-6.463 14.512,-14.457 v -8.051 c 0,-15.534 -15.448,-23.953 -31.35,-24.095 h -3.345"
             style="fill:none;stroke:#000000;stroke-width:15;stroke-linecap:round;stroke-linejoin:round;stroke-miterlimit:10;stroke-dasharray:none;stroke-opacity:1"
             id="path1748" /></g><g
           id="g1750"
           transform="translate(171.9668,396.5244)"><path
             d="M 0,0 C -15.194,13.408 -15.506,50.572 -8.675,66.588"
             style="fill:none;stroke:#000000;stroke-width:15;stroke-linecap:round;stroke-linejoin:round;stroke-miterlimit:10;stroke-dasharray:none;stroke-opacity:1"
             id="path1752" /></g><g
           id="g1754"
           transform="translate(124.373,358.4258)"><path
             d="m 0,0 v -27.837 c 0,-32.939 30.954,-74.27 68.797,-88.33 8.334,-3.09 15.676,-4.621 23.017,-4.621 7.341,0 14.655,1.531 22.989,4.621 37.843,14.06 68.825,55.391 68.825,88.33 V 0"
             style="fill:none;stroke:#000000;stroke-width:15;stroke-linecap:round;stroke-linejoin:round;stroke-miterlimit:10;stroke-dasharray:none;stroke-opacity:1"
             id="path1756" /></g><g
           id="g1758"
           transform="translate(69.6357,177.1733)"><path
             d="m 0,0 c 5.782,15.761 16.838,28.999 35.008,34.583 l 64.63,19.929 v 23.556"
             style="fill:none;stroke:#000000;stroke-width:15;stroke-linecap:round;stroke-linejoin:round;stroke-miterlimit:10;stroke-dasharray:none;stroke-opacity:1"
             id="path1760" /></g><g
           id="g1762"
           transform="translate(318.1494,214.7051)"><path
             d="M 0,0 -55.077,16.98 V 40.537"
             style="fill:none;stroke:#000000;stroke-width:15;stroke-linecap:round;stroke-linejoin:round;stroke-miterlimit:10;stroke-dasharray:none;stroke-opacity:1"
             id="path1764" /></g><g
           id="g1766"
           transform="translate(256.3545,342.9482)"><path
             d="M 0,0 V -7.172"
             style="fill:none;stroke:#000000;stroke-width:15;stroke-linecap:round;stroke-linejoin:round;stroke-miterlimit:10;stroke-dasharray:none;stroke-opacity:1"
             id="path1768" /></g><g
           id="g1770"
           transform="translate(178.5146,342.9482)"><path
             d="M 0,0 V -7.172"
             style="fill:none;stroke:#000000;stroke-width:15;stroke-linecap:round;stroke-linejoin:round;stroke-miterlimit:10;stroke-dasharray:none;stroke-opacity:1"
             id="path1772" /></g><g
           id="g1774"
           transform="translate(202.6094,286.5371)"><path
             d="M 0,0 C 8.191,-8.192 21.458,-8.192 29.622,0"
             style="fill:none;stroke:#000000;stroke-width:15;stroke-linecap:round;stroke-linejoin:round;stroke-miterlimit:10;stroke-dasharray:none;stroke-opacity:1"
             id="path1776" /></g><g
           id="g1778"
           transform="translate(107.9883,78.7798)"><path
             d="m 0,0 h -38.098 c -10.431,0 -18.964,8.533 -18.964,18.936 v 71.435 c 0,4.422 3.601,8.023 8.023,8.023 h 59.98 c 4.423,0 8.023,-3.601 8.023,-8.023 V 18.936 C 18.964,8.533 10.432,0 0,0 Z"
             style="fill:none;stroke:#000000;stroke-width:15;stroke-linecap:round;stroke-linejoin:round;stroke-miterlimit:10;stroke-dasharray:none;stroke-opacity:1"
             id="path1780" /></g><g
           id="g1782"
           transform="translate(169.2734,231.6851)"><path
             d="m 0,0 v -6.293 c 0,-42.124 93.799,-42.124 93.799,0 V 0"
             style="fill:none;stroke:#000000;stroke-width:15;stroke-linecap:round;stroke-linejoin:round;stroke-miterlimit:10;stroke-dasharray:none;stroke-opacity:1"
             id="path1784" /></g><g
           id="g1786"
           transform="translate(229.1133,106.1919)"><path
             d="m 0,0 v -10.233 c 0,-9.44 7.738,-17.179 17.178,-17.179 H 61.144 L 74.607,-10.233 68.201,6.973 H 6.944 C 3.118,6.973 0,3.827 0,0"
             style="fill:#a7a2d3;fill-opacity:1;fill-rule:evenodd;stroke:none"
             id="path1788" /></g><g
           id="g1790"
           transform="translate(318.0361,214.1665)"><path
             d="m 0,0 -20.722,-101.001 -7.057,-34.386 h 58.053 128.892 l 26.872,130.936 c 0.255,1.333 0.397,2.608 0.425,3.884 v 0.454 C 186.35,9.95 178.526,17.519 170.702,17.519 H 20.892 C 9.723,17.519 2.239,9.723 0.113,0.539 Z"
             style="fill:#dddaec;fill-opacity:1;fill-rule:evenodd;stroke:none"
             id="path1792" /></g><g
           id="g1794"
           transform="translate(443.583,231.6851)"><path
             d="m 0,0 c 1.502,-10.545 2.296,-21.459 2.296,-32.627 0,-47.227 -14.287,-89.862 -37.275,-120.278 h 68.598 l 26.872,130.936 c 0.255,1.332 0.397,2.608 0.425,3.884 v 0.453 C 60.803,-7.569 52.979,0 45.155,0 Z"
             style="fill:#beb9dd;fill-opacity:1;fill-rule:evenodd;stroke:none"
             id="path1796" /></g><g
           id="g1798"
           transform="translate(426.5186,231.6851)"><path
             d="m 0,0 h 62.22 c 8.929,0 17.83,-9.836 15.336,-21.969 L 50.684,-152.905 h -186.946 l 27.78,135.386 C -106.555,-8.107 -98.986,0 -87.591,0 h 51.987"
             style="fill:none;stroke:#000000;stroke-width:15;stroke-linecap:round;stroke-linejoin:round;stroke-miterlimit:10;stroke-dasharray:none;stroke-opacity:1"
             id="path1800" /></g><g
           id="g1802"
           transform="translate(404.8613,170.54)"><path
             d="m 0,0 c -10.12,0 -18.766,-7.994 -19.304,-17.831 -0.539,-9.836 7.229,-17.83 17.376,-17.83 10.12,0 18.766,7.994 19.276,17.83 C 17.887,-7.994 10.12,0 0,0"
             style="fill:#3bc3a4;fill-opacity:1;fill-rule:evenodd;stroke:none"
             id="path1804" /></g><g
           id="g1806"
           transform="translate(290.2568,78.7798)"><path
             d="m 0,0 h -43.966 c -9.439,0 -17.178,7.739 -17.178,17.179 v 10.233 c 0,3.827 3.119,6.973 6.945,6.973 H 7.058 Z"
             style="fill:none;stroke:#000000;stroke-width:15;stroke-linecap:round;stroke-linejoin:round;stroke-miterlimit:10;stroke-dasharray:none;stroke-opacity:1"
             id="path1808" /></g><g
           id="g1810"
           transform="translate(453.6172,74.1875)"><path
             d="m 0,0 v -42.493 c 0,-2.522 -2.041,-4.563 -4.563,-4.563 h 50.881 c 2.495,0 4.564,2.041 4.564,4.563 V 0 c 0,2.523 -2.069,4.592 -4.564,4.592 H 23.585 -4.507 C -2.013,4.564 0,2.495 0,0"
             style="fill:#7f4d2a;fill-opacity:1;fill-rule:evenodd;stroke:none"
             id="path1812" /></g><g
           id="g1814"
           transform="translate(256.3828,27.1313)"><path
             d="m 0,0 h 243.553 c 2.494,0 4.563,2.041 4.563,4.563 v 42.493 c 0,2.523 -2.069,4.592 -4.563,4.592 h -487.872 c -2.523,0 -4.564,-2.069 -4.564,-4.592 V 4.563 c 0,-2.522 2.041,-4.563 4.564,-4.563 h 209.708"
             style="fill:none;stroke:#000000;stroke-width:15;stroke-linecap:round;stroke-linejoin:round;stroke-miterlimit:10;stroke-dasharray:none;stroke-opacity:1"
             id="path1816" /></g><g
           id="g1818"
           transform="translate(404.8613,170.54)"><path
             d="m 0,0 c -10.12,0 -18.766,-7.994 -19.304,-17.831 -0.539,-9.836 7.229,-17.83 17.376,-17.83 10.12,0 18.766,7.994 19.276,17.83 C 17.887,-7.994 10.12,0 0,0 Z"
             style="fill:none;stroke:#000000;stroke-width:15;stroke-linecap:round;stroke-linejoin:round;stroke-miterlimit:10;stroke-dasharray:none;stroke-opacity:1"
             id="path1820" /></g></g></g></g></svg>
